<svg width="88" height="76" viewBox="0 0 88 76" fill="none" xmlns="http://www.w3.org/2000/svg">
<path d="M84.4896 69.8003C84.4896 71.4344 83.0451 72.7671 81.2692 72.7671H21.693C19.917 72.7671 18.4725 71.4344 18.4725 69.8003V69.6946H30.1298C30.6144 69.6946 31.0075 69.333 31.0075 68.8863C31.0075 68.4401 30.6144 68.0786 30.1298 68.0786H18.4725V53.6935C18.4725 43.1771 27.7637 34.6216 39.1847 34.6216H63.7775C75.198 34.6216 84.4896 43.1771 84.4896 53.6935V69.8003ZM9.22479 45.6659C8.72692 43.42 8.42383 40.9451 8.13072 38.5518C7.74537 35.4053 7.38121 32.4334 6.61102 30.5637C5.87789 28.7835 4.50413 27.7955 3.29392 27.2509L4.71222 26.6387C5.38661 26.827 7.33798 27.5827 8.87646 30.2585C9.47115 31.2928 9.7854 33.1801 10.118 35.1783C10.8422 39.5268 11.7272 44.8306 15.9883 47.2673C15.4827 48.8111 15.1616 50.4011 15.0308 52.0091C12.9518 50.8901 9.91216 48.7681 9.22479 45.6659ZM17.5388 29.9735C16.1727 26.922 16.4683 23.4741 18.417 19.7258C19.6766 17.3033 21.4413 15.1159 23.673 13.2015C23.9811 13.6663 24.3667 14.0846 24.7953 14.4508C22.7598 16.21 21.15 18.2121 20.0001 20.424C18.2802 23.7325 17.9944 26.7315 19.1523 29.3368C20.5534 32.491 23.7766 34.3838 25.5941 35.2394C25.0585 35.5753 24.5377 35.9308 24.0329 36.3051C21.9904 35.2346 18.9814 33.1973 17.5388 29.9735ZM26.7006 10.0534C28.1376 7.95154 37.1263 3.80209 52.3135 3.26427C52.9125 3.24321 53.5227 3.23246 54.1268 3.23246C67.0707 3.23246 76.3955 7.9266 76.7863 8.1265C76.8727 8.17078 77.1364 8.30534 76.9343 9.02286C76.5921 10.2399 75.3973 11.227 74.7993 11.227C74.7489 11.227 74.69 11.2205 74.606 11.1707C72.231 9.7709 66.1394 7.42318 52.0278 7.42318C51.4405 7.42318 50.8359 7.42705 50.2313 7.43522C39.9447 7.57278 33.7209 10.5065 30.3772 12.0829C29.7054 12.3998 28.9509 12.7553 28.6288 12.8469C28.1082 12.7544 27.0298 12.1818 26.5909 11.3882C26.3388 10.9334 26.3719 10.534 26.7006 10.0534ZM85.9308 22.5292C86.4603 27.7878 84.0652 33.2394 79.6617 36.8683C79.2139 36.5089 78.7519 36.1649 78.2765 35.8369C82.4092 32.5464 84.6708 27.5187 84.1834 22.6784C83.9144 20.0087 82.6744 16.25 78.4791 12.8249C78.8839 12.4372 79.2411 12.0021 79.5385 11.5447C83.3126 14.6048 85.5125 18.3712 85.9308 22.5292ZM67.1184 31.6019C66.0787 30.4816 64.3265 29.5083 61.9399 28.7431C59.9038 28.0896 57.4962 27.6292 54.9219 27.3858C54.9494 27.2358 54.9672 27.0832 54.9672 26.9258C54.9672 25.4061 53.6245 24.1693 51.9736 24.1693H49.0085C47.3577 24.1693 46.015 25.4061 46.015 26.9258C46.015 27.0927 46.0336 27.2547 46.0645 27.4134C40.2711 27.9967 35.7443 29.6704 33.9534 31.9145C31.6191 32.3891 29.4108 33.175 27.3813 34.2222C26.6058 33.9312 22.3148 32.1866 20.7765 28.7246C19.8148 26.5596 20.086 24.0016 21.5833 21.1217C22.6851 19.0027 24.2524 17.0888 26.2487 15.4151C27.0204 15.8068 27.8136 16.0428 28.492 16.0845C28.5471 16.0879 28.604 16.0896 28.6624 16.0896C29.5807 16.0896 30.4832 15.6645 31.9767 14.9603C35.0655 13.5042 40.815 10.7941 50.2822 10.6672C50.8695 10.6595 51.4568 10.6556 52.0278 10.6556C65.7392 10.6556 71.062 12.9199 72.7138 13.8937C73.3515 14.2694 74.0528 14.4599 74.7993 14.4599C75.6051 14.4599 76.3801 14.2312 77.0856 13.8503C81.0409 16.9821 82.1922 20.4111 82.4354 22.8276C82.8756 27.1975 80.8018 31.7464 77.0239 34.699C76.9446 34.7609 76.8717 34.8271 76.8026 34.8954C73.9295 33.2016 70.6437 32.052 67.1184 31.6019ZM46.987 28.9529C47.5202 29.4043 48.2289 29.6824 49.0085 29.6824H51.9736C52.7682 29.6824 53.4891 29.3939 54.0255 28.9275C58.4183 29.2589 61.9147 30.2194 64.0669 31.3921C63.9707 31.3913 63.8746 31.3887 63.7775 31.3887H39.1847C38.4919 31.3887 37.807 31.4171 37.1291 31.47C39.2136 30.2924 42.6423 29.314 46.987 28.9529ZM80.948 37.9766C85.6848 34.0115 88.254 28.0948 87.6788 22.38C87.2021 17.6459 84.6526 13.3924 80.2817 10.0013C80.2995 9.94543 80.3172 9.88954 80.3326 9.83366C80.8775 7.89736 80.172 6.16055 78.4908 5.30074C74.6424 3.33177 65.1799 0 54.1268 0C53.4779 0 52.8224 0.0116119 52.1786 0.0344009C43.2665 0.349945 36.9404 1.82281 33.2027 3.0029C28.4084 4.51659 25.0442 6.4086 23.7299 8.33071C23.0208 9.36807 22.7742 10.4893 22.9927 11.5851C20.354 13.7376 18.2858 16.2358 16.8338 19.028C14.6615 23.2067 14.3524 27.0965 15.9159 30.5895C17.4277 33.9668 20.4068 36.1688 22.6365 37.4216C19.9945 39.7009 17.9067 42.5177 16.5798 45.6805C13.2777 43.4875 12.4966 38.7973 11.8533 34.9333C11.4818 32.7038 11.1612 30.7778 10.4277 29.5023C8.14296 25.5282 4.89602 25.008 4.75909 24.9878C4.58528 24.962 4.40726 24.9853 4.24787 25.054L0.503257 26.67C0.14657 26.8244 -0.0531573 27.1786 0.0123443 27.5363C0.0776126 27.894 0.395831 28.1679 0.787767 28.2061C0.914148 28.2182 3.89884 28.5367 4.96988 31.1368C5.66178 32.8164 6.0138 35.6903 6.38655 38.7328C6.68399 41.1613 6.99166 43.6728 7.50503 45.9892C8.43092 50.1678 12.6861 52.7318 14.9621 53.8276V69.8003C14.9621 73.2185 17.9814 76 21.693 76H81.2692C84.9808 76 88 73.2185 88 69.8003V53.6935C88 47.5682 85.3038 42.0117 80.948 37.9766Z" fill="#100F0D"/>
</svg>
